<svg width="1024" height="1024" viewBox="0 0 1024 1024" xmlns="http://www.w3.org/2000/svg">
  <defs>
    <linearGradient id="bg-grad" x1="0%" y1="0%" x2="100%" y2="100%">
      <stop offset="0%" stop-color="#1A1A1D" />
      <stop offset="50%" stop-color="#000000" />
      <stop offset="100%" stop-color="#09090b" />
    </linearGradient>
    
    <linearGradient id="gold-grad" x1="0%" y1="0%" x2="100%" y2="100%">
      <stop offset="0%" stop-color="#FFF77B" />
      <stop offset="50%" stop-color="#FFD700" />
      <stop offset="100%" stop-color="#B8860B" />
    </linearGradient>

    <filter id="neon-glow" x="-50%" y="-50%" width="200%" height="200%">
      <feGaussianBlur stdDeviation="10" result="blur1" />
      <feGaussianBlur stdDeviation="25" result="blur2" />
      <feMerge>
        <feMergeNode in="blur2" />
        <feMergeNode in="blur1" />
        <feMergeNode in="SourceGraphic" />
      </feMerge>
    </filter>
  </defs>

  <rect width="1024" height="1024" rx="230" fill="url(#bg-grad)" />
  
  <rect width="1016" height="1016" x="4" y="4" rx="226" fill="none" stroke="#2A2A2A" stroke-width="8" />

  <g transform="translate(176, 176) scale(28)" filter="url(#neon-glow)">
    <path 
      d="M12 2l3.09 6.26L22 9.27l-5 4.87 1.18 6.88L12 17.77l-6.18 3.25L7 14.14 2 9.27l6.91-1.01L12 2z" 
      fill="none" 
      stroke="url(#gold-grad)" 
      stroke-width="1.2" 
      stroke-linejoin="round"
    />
    <polygon points="10,11 14,11 12,14" fill="url(#gold-grad)" />
    <polygon points="10.5,9 9,10 8.5,8" fill="url(#gold-grad)" />
    <polygon points="13.5,9 15,10 15.5,8" fill="url(#gold-grad)" />
  </g>
</svg>
